<?xml version="1.0" encoding="UTF-8"?>
<svg xmlns="http://www.w3.org/2000/svg" version="1.1" viewBox="0 0 215.52 69.97">
  <defs>
    <style>
      .cls-1 {
        fill: #a15853;
      }

      .cls-2 {
        fill: #a1d8be;
      }

      .cls-3 {
        fill: #a4d7bc;
      }

      .cls-4 {
        fill: #d44c1c;
      }

      .cls-5 {
        fill: #078889;
      }

      .cls-6 {
        fill: #a5d8bc;
      }

      .cls-7 {
        fill: #e1a731;
      }

      .cls-8 {
        fill: #a3dbc0;
      }
    </style>
  </defs>
  <!-- Generator: Adobe Illustrator 28.6.0, SVG Export Plug-In . SVG Version: 1.2.0 Build 709)  -->
  <g>
    <g id="Layer_1">
      <g>
        <path class="cls-8" d="M0,35.43C0,23.62,0,11.82,0,0,71.84,0,143.68,0,215.52,0c0,10.78,0,21.55,0,32.32-.2-.28-.41-.57-.63-.87-.55.35-.93.57-1.29.81-5.9,3.9-11.8,7.8-17.71,11.68-.66.43-1.38.85-2.13,1.05-2,.52-3.7-.16-4.88-1.93-2.27-3.44-4.87-6.56-8.55-8.56-8.47-4.59-16.7-4.01-24.68,1.28-2.97,1.97-5.38,1.49-7.35-1.46-.35-.53-.71-1.06-1.08-1.58-5.96-8.33-16.67-11.76-26.17-8-3.22,1.27-6.12,3.4-9.09,5.26-3.25,2.04-6.34,4.32-9.62,6.3-3.23,1.95-6.06,4.47-9.76,5.8-3.11,1.12-5.21.83-7.27-2.36-7.28-11.26-21.36-14.32-32.65-7.11-4.63,2.96-6.15,2.64-9.29-1.93-3.89-5.68-9.29-8.97-16.08-10.05-2.61-.42-4.92-.15-7.21,1.54-4.05,2.98-8.35,5.62-12.56,8.39C5.04,32.21,2.51,33.81,0,35.43Z"/>
        <path class="cls-7" d="M215.52,58.42c-3.83,2.53-7.65,5.09-11.5,7.59-11.07,7.2-24.64,4.34-31.93-6.69-.48-.73-.97-1.5-1.63-2.05-1.66-1.41-3.54-1.22-5.78,0-2.5,1.38-5.03,2.92-7.74,3.67-9.47,2.63-19.04-1.11-24.64-9.31-.29-.43-.57-.87-.86-1.3-1.67-2.44-4.18-2.98-6.66-1.36-6.15,4.03-12.23,8.17-18.42,12.13-3.29,2.1-6.56,4.43-10.17,5.78-10.54,3.95-21.68-.16-27.83-9.81-1.95-3.05-4.5-3.6-7.52-1.61-.57.37-1.14.74-1.72,1.09-10.74,6.54-24.29,3.66-31.42-6.67-.43-.62-.83-1.27-1.29-1.88-1.7-2.25-4.2-2.68-6.55-1.13-6.14,4.04-12.28,8.09-18.42,12.13C.98,59.35.48,59.59,0,59.86v-5.51c.45-.26.91-.49,1.34-.77,5.24-3.45,10.47-6.91,15.7-10.37,2.69-1.78,5.57-2.35,8.67-1.29,2.38.82,3.99,2.52,5.32,4.6,4.88,7.67,13.87,10.84,22.23,7.76,2-.74,3.83-1.95,5.67-3.06,3.71-2.25,8.01-2.02,11.23.83.97.86,1.72,1.99,2.47,3.06,6.31,9.1,17.26,11.26,26.53,5.21,4.01-2.62,8.05-5.19,12.07-7.81,3.68-2.4,7.32-4.86,11.01-7.25,3.7-2.41,7.88-2.3,10.99.45,1.23,1.09,2.18,2.53,3.15,3.89,4.41,6.16,12.08,9.1,19.35,7.05,2.3-.65,4.45-1.93,6.54-3.15,2.07-1.21,4.17-1.98,6.59-1.66,3.04.4,5.23,2.08,6.79,4.62,2.28,3.7,5.38,6.44,9.49,7.89,5.81,2.05,11.32,1.32,16.48-2.07,4.64-3.05,9.28-6.09,13.92-9.14,0,1.76,0,3.51,0,5.27Z"/>
        <path class="cls-4" d="M215.52,45.73c0,1.84,0,3.67,0,5.51-.38.21-.78.39-1.14.63-4.27,2.81-8.5,5.68-12.8,8.44-8.09,5.2-18.67,3.21-24.36-4.52-.73-1-1.4-2.05-2.18-3-1.78-2.15-4.08-3.26-6.9-3.28-2.21-.02-4.12.81-5.89,2.05-3.63,2.54-7.65,3.79-12.09,3.38-6.19-.57-10.84-3.65-14.19-8.84-3.36-5.2-8.52-6.2-13.73-2.81-7.69,5.01-15.38,10.01-23.08,14.99-7.14,4.61-15.91,4.15-22.36-1.39-1.76-1.51-3.12-3.51-4.51-5.39-2.52-3.39-6.25-4.93-10.19-3.78-1.46.43-2.82,1.3-4.11,2.13-3.65,2.35-7.6,3.54-11.93,3.17-6.47-.55-11.32-3.73-14.78-9.17-3.25-5.11-8.74-6.28-13.78-2.97C11.65,44.72,5.83,48.58,0,52.44v-5.75c.38-.18.79-.33,1.15-.56,4.84-3.17,9.63-6.43,14.52-9.53,4.43-2.8,9.1-2.93,13.82-.68,2.81,1.34,4.6,3.71,6.29,6.23,2.88,4.3,6.98,6.4,12.2,6.26,3.12-.08,5.78-1.31,8.31-3.02,4.64-3.14,9.54-3.6,14.64-1.14,2.85,1.38,4.66,3.79,6.36,6.34,3.36,5.04,9.43,7.48,15.19,5.59,3.19-1.04,6.19-2.84,9.05-4.65,6.48-4.1,12.77-8.48,19.23-12.61,4.35-2.78,8.96-2.82,13.57-.53,2.68,1.33,4.37,3.63,5.99,6.04,2.86,4.23,6.93,6.25,12.05,6.06,2.93-.11,5.46-1.31,7.85-2.96,3.83-2.64,8-3.28,12.43-1.76,3.24,1.11,5.52,3.35,7.37,6.19,4.66,7.15,12.68,8.78,19.78,4.12,5.24-3.44,10.47-6.89,15.71-10.34Z"/>
        <path class="cls-1" d="M215.52,38.55c0,1.76,0,3.51,0,5.27-.34.2-.7.38-1.03.6-4.87,3.21-9.72,6.46-14.6,9.64-4.11,2.68-8.48,3.12-13.03,1.24-3.05-1.26-5.08-3.61-6.84-6.31-4.26-6.53-12.36-8.2-18.92-4.01-1.21.77-2.42,1.6-3.73,2.15-6.51,2.7-13.09.43-17.22-5.86-4.69-7.15-12.62-8.78-19.79-4.13-7.75,5.03-15.53,10.02-23.32,15-5.42,3.46-12.08,3.05-16.88-1.25-1.66-1.49-2.85-3.52-4.26-5.29-2.41-3.03-5.57-4.74-9.41-5.14-3.8-.4-7.17.75-10.25,2.93-3.48,2.47-7.34,3.27-11.51,2.34-3.79-.84-6.54-3.14-8.76-6.24-1.15-1.61-2.36-3.29-3.9-4.49-5.01-3.88-11.11-3.94-16.42-.45C10.43,37.96,5.21,41.36,0,44.77v-5.51c4.58-3,9.13-6.03,13.73-8.99,6.43-4.12,15.08-3.84,21.01.94,2.04,1.64,3.71,3.83,5.28,5.96,3.31,4.48,8.46,5.6,13.19,2.66.75-.46,1.48-.95,2.23-1.41,6.35-3.9,14.67-3.52,20.65.92,2.19,1.62,3.82,3.71,5.29,5.97,2.53,3.88,6.92,5.48,11.05,3.91,2.04-.78,4.05-1.76,5.89-2.94,6.78-4.37,13.46-8.9,20.23-13.29,8.39-5.45,19.25-3.21,24.87,5.04.49.73.96,1.48,1.5,2.17,2.83,3.62,7.6,4.59,11.61,2.35.97-.55,1.88-1.22,2.84-1.79,3.72-2.21,7.75-2.98,11.99-2.3,5.39.85,9.67,3.59,12.48,8.26,3.2,5.33,9.11,6.91,14.65,2.93,5.12-3.68,10.5-7,15.78-10.46.39-.26.84-.42,1.25-.63Z"/>
        <path class="cls-5" d="M0,35.43c2.51-1.62,5.04-3.22,7.54-4.87,4.21-2.76,8.51-5.4,12.56-8.39,2.29-1.69,4.6-1.96,7.21-1.54,6.78,1.09,12.18,4.37,16.08,10.05,3.13,4.57,4.66,4.88,9.29,1.93,11.28-7.22,25.37-4.15,32.65,7.11,2.06,3.19,4.16,3.48,7.27,2.36,3.7-1.33,6.53-3.85,9.76-5.8,3.28-1.98,6.38-4.26,9.62-6.3,2.97-1.86,5.87-3.99,9.09-5.26,9.51-3.75,20.21-.33,26.17,8,.37.52.73,1.05,1.08,1.58,1.97,2.95,4.37,3.43,7.35,1.46,7.97-5.29,16.21-5.87,24.68-1.28,3.68,2,6.28,5.12,8.55,8.56,1.17,1.78,2.88,2.45,4.88,1.93.75-.19,1.47-.61,2.13-1.05,5.91-3.88,11.81-7.79,17.71-11.68.36-.24.73-.46,1.29-.81.22.3.42.59.63.87,0,1.36,0,2.71,0,4.07-1.67,1.1-3.34,2.19-5.01,3.29-4.17,2.75-8.32,5.52-12.5,8.25-4.68,3.05-9.98,1.96-13.09-2.66-.42-.63-.82-1.28-1.27-1.88-3.64-4.85-8.51-7.37-14.58-7.45-4.1-.05-7.71,1.38-11.07,3.69-3.78,2.59-8.07,2.48-11.29-.33-1.15-1-1.99-2.38-2.87-3.65-4.89-7.07-13.82-9.91-21.71-6.48-3.22,1.4-6.06,3.67-9.11,5.48-6.39,3.79-12.03,8.77-18.91,11.8-4.21,1.85-8.93.89-11.7-2.79-.84-1.12-1.56-2.33-2.46-3.39-4.59-5.47-10.46-7.63-17.51-6.61-3.21.46-5.95,1.96-8.6,3.74-3.02,2.04-6.24,2.29-9.56.74-1.96-.91-3.22-2.55-4.41-4.28-6.41-9.38-17.27-11.5-26.73-5.25-4,2.64-8,5.29-12,7.92C.79,36.75.38,36.91,0,37.11v-1.68Z"/>
        <path class="cls-3" d="M0,44.77c5.21-3.41,10.43-6.81,15.64-10.23,5.31-3.49,11.42-3.43,16.42.45,1.54,1.19,2.75,2.88,3.9,4.49,2.22,3.1,4.97,5.4,8.76,6.24,4.17.92,8.03.13,11.51-2.34,3.08-2.19,6.45-3.33,10.25-2.93,3.84.4,7,2.11,9.41,5.14,1.41,1.78,2.6,3.8,4.26,5.29,4.8,4.31,11.46,4.72,16.88,1.25,7.79-4.98,15.57-9.96,23.32-15,7.17-4.65,15.1-3.03,19.79,4.13,4.13,6.29,10.71,8.57,17.22,5.86,1.31-.55,2.52-1.37,3.73-2.15,6.56-4.18,14.66-2.51,18.92,4.01,1.76,2.7,3.79,5.05,6.84,6.31,4.55,1.88,8.92,1.44,13.03-1.24,4.89-3.18,9.74-6.43,14.6-9.64.33-.22.69-.4,1.03-.6,0,.64,0,1.28,0,1.92-5.23,3.45-10.47,6.9-15.71,10.34-7.1,4.67-15.12,3.03-19.78-4.12-1.85-2.83-4.13-5.08-7.37-6.19-4.43-1.51-8.6-.88-12.43,1.76-2.38,1.64-4.92,2.85-7.85,2.96-5.11.19-9.18-1.83-12.05-6.06-1.63-2.41-3.31-4.71-5.99-6.04-4.62-2.29-9.22-2.25-13.57.53-6.46,4.13-12.75,8.52-19.23,12.61-2.86,1.81-5.86,3.6-9.05,4.65-5.76,1.89-11.83-.55-15.19-5.59-1.7-2.55-3.5-4.96-6.36-6.34-5.1-2.46-10-2-14.64,1.14-2.53,1.71-5.2,2.94-8.31,3.02-5.22.14-9.33-1.96-12.2-6.26-1.69-2.53-3.48-4.89-6.29-6.23-4.72-2.25-9.39-2.13-13.82.68-4.89,3.09-9.68,6.35-14.52,9.53C.79,46.36.38,46.5,0,46.69v-1.92Z"/>
        <path class="cls-6" d="M0,52.44c5.83-3.85,11.65-7.72,17.49-11.56,5.04-3.31,10.52-2.15,13.78,2.97,3.46,5.44,8.32,8.62,14.78,9.17,4.33.37,8.28-.82,11.93-3.17,1.3-.84,2.66-1.71,4.11-2.13,3.94-1.15,7.67.39,10.19,3.78,1.4,1.88,2.76,3.88,4.51,5.39,6.45,5.54,15.22,6.01,22.36,1.39,7.7-4.98,15.4-9.98,23.08-14.99,5.21-3.4,10.37-2.4,13.73,2.81,3.36,5.2,8,8.27,14.19,8.84,4.44.41,8.46-.84,12.09-3.38,1.77-1.24,3.68-2.06,5.89-2.05,2.82.02,5.12,1.13,6.9,3.28.79.95,1.45,2,2.18,3,5.69,7.73,16.27,9.72,24.36,4.52,4.3-2.76,8.53-5.63,12.8-8.44.36-.24.76-.42,1.14-.63,0,.64,0,1.28,0,1.92-4.64,3.05-9.28,6.09-13.92,9.14-5.15,3.39-10.67,4.12-16.48,2.07-4.11-1.45-7.21-4.19-9.49-7.89-1.56-2.54-3.75-4.22-6.79-4.62-2.42-.32-4.51.45-6.59,1.66-2.09,1.22-4.24,2.5-6.54,3.15-7.27,2.05-14.94-.89-19.35-7.05-.97-1.36-1.92-2.8-3.15-3.89-3.11-2.75-7.29-2.86-10.99-.45-3.68,2.4-7.33,4.85-11.01,7.25-4.01,2.62-8.05,5.19-12.07,7.81-9.27,6.05-20.22,3.9-26.53-5.21-.75-1.08-1.5-2.2-2.47-3.06-3.22-2.86-7.51-3.08-11.23-.83-1.84,1.11-3.67,2.32-5.67,3.06-8.37,3.09-17.35-.09-22.23-7.76-1.33-2.09-2.93-3.79-5.32-4.6-3.1-1.06-5.98-.5-8.67,1.29-5.23,3.46-10.46,6.92-15.7,10.37C.91,53.86.45,54.1,0,54.35v-1.92Z"/>
        <path class="cls-2" d="M0,37.11c.38-.19.79-.35,1.15-.59,4.01-2.63,8-5.28,12-7.92,9.46-6.25,20.31-4.13,26.73,5.25,1.19,1.73,2.45,3.37,4.41,4.28,3.32,1.55,6.54,1.29,9.56-.74,2.64-1.78,5.39-3.28,8.6-3.74,7.05-1.01,12.93,1.14,17.51,6.61.89,1.07,1.62,2.28,2.46,3.39,2.77,3.68,7.49,4.64,11.7,2.79,6.89-3.03,12.52-8,18.91-11.8,3.05-1.81,5.89-4.08,9.11-5.48,7.89-3.43,16.82-.59,21.71,6.48.88,1.27,1.72,2.65,2.87,3.65,3.22,2.81,7.51,2.92,11.29.33,3.36-2.3,6.97-3.74,11.07-3.69,6.07.07,10.94,2.6,14.58,7.45.45.61.85,1.26,1.27,1.88,3.11,4.61,8.41,5.71,13.09,2.66,4.18-2.73,8.34-5.5,12.5-8.25,1.67-1.1,3.34-2.19,5.01-3.29,0,.72,0,1.44,0,2.16-.42.21-.87.38-1.25.63-5.27,3.47-10.66,6.79-15.78,10.46-5.54,3.97-11.45,2.4-14.65-2.93-2.81-4.67-7.09-7.4-12.48-8.26-4.24-.67-8.28.09-11.99,2.3-.96.57-1.86,1.24-2.84,1.79-4,2.25-8.78,1.28-11.61-2.35-.54-.69-1-1.44-1.5-2.17-5.62-8.25-16.48-10.49-24.87-5.04-6.77,4.39-13.45,8.92-20.23,13.29-1.83,1.18-3.85,2.16-5.89,2.94-4.13,1.58-8.52-.02-11.05-3.91-1.47-2.26-3.1-4.35-5.29-5.97-5.98-4.44-14.3-4.82-20.65-.92-.75.46-1.48.95-2.23,1.41-4.73,2.94-9.89,1.82-13.19-2.66-1.57-2.13-3.24-4.32-5.28-5.96-5.93-4.77-14.58-5.06-21.01-.94C9.13,33.23,4.58,36.27,0,39.26v-2.16Z"/>
      </g>
    </g>
  </g>
</svg>